<?xml version="1.0" encoding="utf-8"?>
<!-- Generator: Adobe Illustrator 16.0.0, SVG Export Plug-In . SVG Version: 6.00 Build 0)  -->
<!DOCTYPE svg PUBLIC "-//W3C//DTD SVG 1.1//EN" "http://www.w3.org/Graphics/SVG/1.1/DTD/svg11.dtd">
<svg version="1.1" id="图层_1" xmlns="http://www.w3.org/2000/svg" xmlns:xlink="http://www.w3.org/1999/xlink" x="0px" y="0px"
	 width="330px" height="90px" viewBox="0 0 330 90" enable-background="new 0 0 330 90" xml:space="preserve">
<g>
	<path fill="#FFFFFF" d="M43.841,44.688c2.789-2.605,4.203-5.931,4.203-9.902c0-3.779-1.364-7.06-4.053-9.748
		c-2.688-2.689-5.968-4.053-9.748-4.053H13.851c-0.903,0-1.692,0.333-2.254,0.932c-0.646,0.61-0.987,1.408-0.987,2.312v43.449
		c0,0.887,0.331,1.688,0.958,2.315c0.606,0.606,1.396,0.926,2.282,0.926l21.906,0.034c3.955,0,7.38-1.42,10.181-4.221
		c2.793-2.818,4.21-6.252,4.21-10.205c0-2.778-0.759-5.36-2.252-7.674C46.823,47.176,45.463,45.777,43.841,44.688z M17.091,42.136
		V27.469h17.153c2.032,0,3.718,0.698,5.151,2.133c1.456,1.457,2.165,3.152,2.165,5.183c0,2.05-0.708,3.746-2.17,5.19
		c-1.435,1.455-3.118,2.161-5.146,2.161H17.091z M43.699,56.527c0,2.207-0.762,4.043-2.332,5.611
		c-1.417,1.42-3.045,2.174-4.928,2.307l-19.348-0.008V48.618h18.665c2.21,0,4.046,0.763,5.617,2.336
		C42.938,52.5,43.699,54.323,43.699,56.527z"/>
	<path fill="#FFFFFF" d="M146.304,19.078h-6.73v32.867c0,5.219,1.875,9.738,5.572,13.436c3.698,3.696,8.217,5.571,13.434,5.571
		h1.418v-6.729h-1.418c-3.372,0-6.297-1.216-8.695-3.613c-2.409-2.409-3.58-5.243-3.58-8.662V39.674h13.693v-6.732h-13.693
		L146.304,19.078L146.304,19.078z"/>
	<g>
		<path fill="#FFFFFF" d="M197.751,26.991c5.56,0,10.095,2.458,13.465,7.31l1.149,1.67l5.922-4.735l-1.148-1.649
			c-4.834-6.975-11.356-10.513-19.388-10.513c-6.658,0-12.427,2.564-17.149,7.618c-4.705,5.039-7.092,11.199-7.092,18.318
			c0,7.119,2.387,13.295,7.096,18.355c4.729,5.033,10.498,7.587,17.146,7.587c8.025,0,14.549-3.538,19.389-10.513l1.147-1.649
			l-5.917-4.729l-1.154,1.66c-3.371,4.852-7.9,7.314-13.465,7.314c-4.62,0-8.628-1.777-11.904-5.278
			c-3.277-3.512-4.938-7.8-4.938-12.748c0-4.942,1.66-9.23,4.933-12.737C189.123,28.768,193.131,26.991,197.751,26.991z"/>
		<path fill="#FFFFFF" d="M246.414,19.074h-17.031c-1.029,0-1.939,0.41-2.605,1.17c-0.726,0.771-1.094,1.708-1.094,2.788v43.961
			c0,1.075,0.394,2.085,1.055,2.739c0.691,0.799,1.605,1.219,2.646,1.219h17.031c6.653,0,12.411-2.564,17.114-7.619
			c4.729-5.033,7.127-11.193,7.127-18.323c0-7.124-2.397-13.285-7.116-18.307C258.825,21.638,253.066,19.074,246.414,19.074z
			 M263.256,45.01c0,4.953-1.66,9.241-4.933,12.742c-3.282,3.506-7.29,5.283-11.909,5.283h-13.331V26.991h13.331
			c4.619,0,8.627,1.777,11.904,5.283C261.596,35.774,263.256,40.063,263.256,45.01z"/>
		<path fill="#FFFFFF" d="M312.025,19.074v36.604l-26.141-35.077c-0.939-1.282-2.059-1.554-2.834-1.554
			c-0.418,0-0.846,0.08-1.273,0.239c-1.551,0.569-2.479,1.974-2.479,3.746v47.92h7.397V34.354l26.097,35.055
			c0.716,0.995,1.756,1.543,2.929,1.543c0.398,0,0.797-0.075,1.229-0.229c1.53-0.601,2.44-1.994,2.44-3.729v-47.92H312.025z"/>
	</g>
	<path fill="#FFFFFF" d="M126.538,41.123c-3.285-3.285-7.652-5.094-12.298-5.094s-9.013,1.809-12.298,5.094l-5.575,5.575
		l4.969,4.969l5.575-5.575c1.958-1.958,4.561-3.036,7.329-3.036c2.768,0,5.372,1.078,7.329,3.036c4.042,4.041,4.042,10.617,0,14.658
		c-1.958,1.958-4.561,3.036-7.329,3.036c-2.768,0-5.371-1.078-7.329-3.036l-6.158-6.158l-1.168-1.168l0,0L87.286,41.125
		c-3.285-3.285-7.652-5.094-12.298-5.094c-4.645,0-9.013,1.809-12.298,5.094c-6.781,6.781-6.781,17.814,0,24.596
		c3.285,3.285,7.653,5.094,12.298,5.094c4.646,0,9.014-1.81,12.298-5.094l0.287-0.287l2.79,2.789l-0.001-5.578v-2.105v-2.878h-2.879
		H85.41l-5.611-0.001l2.806,2.806l-0.287,0.287c-1.957,1.958-4.56,3.036-7.329,3.036c-2.769,0-5.371-1.078-7.329-3.036
		c-4.041-4.041-4.041-10.617,0-14.657c1.958-1.958,4.561-3.037,7.329-3.037c2.769,0,5.372,1.078,7.329,3.037l6.158,6.157
		l1.168,1.168l0,0l12.298,12.298c3.285,3.285,7.652,5.094,12.298,5.094s9.013-1.809,12.298-5.094
		C133.319,58.938,133.319,47.904,126.538,41.123z"/>
</g>
</svg>
